<mxfile host="app.diagrams.net" agent="Mozilla/5.0 (Windows NT 10.0; Win64; x64) AppleWebKit/537.36 (KHTML, like Gecko) Chrome/131.0.0.0 Safari/537.36" version="25.0.3">
  <diagram name="第 1 页" id="_kCn5gWWrIlWfqqUU_DX">
    <mxGraphModel dx="794" dy="446" grid="1" gridSize="10" guides="1" tooltips="1" connect="1" arrows="1" fold="1" page="1" pageScale="1" pageWidth="1100" pageHeight="1700" math="0" shadow="0">
      <root>
        <mxCell id="0" />
        <mxCell id="1" parent="0" />
        <mxCell id="94" value="&lt;u&gt;:編輯建議資料&lt;/u&gt;" style="shape=umlLifeline;participant=umlControl;perimeter=lifelinePerimeter;whiteSpace=wrap;html=1;container=1;collapsible=0;recursiveResize=0;verticalAlign=top;spacingTop=36;outlineConnect=0;fontSize=14;size=60;align=center;" parent="1" vertex="1">
          <mxGeometry x="630" y="92.75" width="60" height="506.25" as="geometry" />
        </mxCell>
        <mxCell id="108" value="" style="html=1;points=[];perimeter=orthogonalPerimeter;" parent="94" vertex="1">
          <mxGeometry x="25" y="247.25" width="10" height="60" as="geometry" />
        </mxCell>
        <mxCell id="104" value="2:傳送需編輯建議資料" style="html=1;verticalAlign=bottom;startArrow=none;startFill=0;endArrow=block;startSize=8;" parent="1" edge="1">
          <mxGeometry width="60" relative="1" as="geometry">
            <mxPoint x="270" y="230" as="sourcePoint" />
            <mxPoint x="778.5" y="230.53999999999996" as="targetPoint" />
            <Array as="points">
              <mxPoint x="380.5" y="230.54" />
            </Array>
          </mxGeometry>
        </mxCell>
        <mxCell id="110" value="6:儲存已編輯資料()" style="html=1;verticalAlign=bottom;startArrow=none;startFill=0;endArrow=block;startSize=8;exitX=0.933;exitY=0.922;exitDx=0;exitDy=0;exitPerimeter=0;" parent="1" edge="1" target="bqVQleZ_oQ4j5fNlhAJD-123">
          <mxGeometry width="60" relative="1" as="geometry">
            <mxPoint x="664.3299999999999" y="399.32000000000005" as="sourcePoint" />
            <mxPoint x="778.5" y="399.32000000000005" as="targetPoint" />
          </mxGeometry>
        </mxCell>
        <mxCell id="112" value="8:回傳建議資料()" style="html=1;verticalAlign=bottom;endArrow=open;dashed=1;endSize=8;" parent="1" edge="1">
          <mxGeometry relative="1" as="geometry">
            <mxPoint x="778.75" y="473" as="sourcePoint" />
            <mxPoint x="541.25" y="473" as="targetPoint" />
            <Array as="points">
              <mxPoint x="587.75" y="473" />
            </Array>
            <mxPoint as="offset" />
          </mxGeometry>
        </mxCell>
        <mxCell id="113" value="&lt;span style=&quot;text-align: center; font-size: 14px;&quot;&gt;&lt;font style=&quot;font-size: 14px;&quot;&gt;編輯建議資料&lt;/font&gt;&lt;/span&gt;&amp;nbsp;&amp;lt;&amp;lt;ref&amp;gt;&amp;gt;" style="text;whiteSpace=wrap;html=1;fontSize=14;" parent="1" vertex="1">
          <mxGeometry x="410" y="40" width="150" height="40" as="geometry" />
        </mxCell>
        <mxCell id="114" value="&lt;u&gt;:顯示&lt;/u&gt;" style="shape=umlLifeline;participant=umlControl;perimeter=lifelinePerimeter;whiteSpace=wrap;html=1;container=1;collapsible=0;recursiveResize=0;verticalAlign=top;spacingTop=36;outlineConnect=0;fontSize=14;size=60;align=center;" parent="1" vertex="1">
          <mxGeometry x="509" y="92.75" width="60" height="506.25" as="geometry" />
        </mxCell>
        <mxCell id="117" value="" style="html=1;points=[];perimeter=orthogonalPerimeter;" parent="114" vertex="1">
          <mxGeometry x="25" y="377" width="10" height="36.25" as="geometry" />
        </mxCell>
        <mxCell id="UdhTGRBezJr3sBxBmupz-120" value="1:點擊編輯資料()" style="html=1;verticalAlign=bottom;endArrow=block;curved=0;rounded=0;" parent="114" edge="1">
          <mxGeometry width="80" relative="1" as="geometry">
            <mxPoint x="-399" y="136.25" as="sourcePoint" />
            <mxPoint x="-249" y="136.25" as="targetPoint" />
          </mxGeometry>
        </mxCell>
        <mxCell id="118" value="9:顯示建議資料()" style="html=1;verticalAlign=bottom;endArrow=open;dashed=1;endSize=8;" parent="1" edge="1">
          <mxGeometry x="0.1667" y="-10" relative="1" as="geometry">
            <mxPoint x="535.5" y="505" as="sourcePoint" />
            <mxPoint x="270" y="505" as="targetPoint" />
            <Array as="points">
              <mxPoint x="342" y="505" />
            </Array>
            <mxPoint as="offset" />
          </mxGeometry>
        </mxCell>
        <mxCell id="UdhTGRBezJr3sBxBmupz-119" value="&lt;u&gt;:老師&lt;/u&gt;" style="shape=umlLifeline;perimeter=lifelinePerimeter;whiteSpace=wrap;html=1;container=1;dropTarget=0;collapsible=0;recursiveResize=0;outlineConnect=0;portConstraint=eastwest;newEdgeStyle={&quot;curved&quot;:0,&quot;rounded&quot;:0};participant=umlActor;size=60;" parent="1" vertex="1">
          <mxGeometry x="90" y="100" width="40" height="480" as="geometry" />
        </mxCell>
        <mxCell id="109" value="5:傳送已編輯資料()" style="html=1;verticalAlign=bottom;startArrow=none;startFill=0;endArrow=block;startSize=8;exitX=0.533;exitY=0.978;exitDx=0;exitDy=0;exitPerimeter=0;" parent="1" target="94" edge="1">
          <mxGeometry width="60" relative="1" as="geometry">
            <mxPoint x="415.3299999999999" y="338.67999999999995" as="sourcePoint" />
            <mxPoint x="660" y="289" as="targetPoint" />
          </mxGeometry>
        </mxCell>
        <mxCell id="UdhTGRBezJr3sBxBmupz-124" value="3:顯示建議資料()" style="html=1;verticalAlign=bottom;endArrow=open;dashed=1;endSize=8;" parent="1" edge="1">
          <mxGeometry x="0.0014" relative="1" as="geometry">
            <mxPoint x="780" y="280" as="sourcePoint" />
            <mxPoint x="414.5" y="280" as="targetPoint" />
            <Array as="points">
              <mxPoint x="586" y="280" />
            </Array>
            <mxPoint as="offset" />
          </mxGeometry>
        </mxCell>
        <mxCell id="UdhTGRBezJr3sBxBmupz-125" value="4:提出要編輯資料()" style="html=1;verticalAlign=bottom;endArrow=block;curved=0;rounded=0;" parent="1" edge="1">
          <mxGeometry width="80" relative="1" as="geometry">
            <mxPoint x="110" y="300" as="sourcePoint" />
            <mxPoint x="407" y="300" as="targetPoint" />
          </mxGeometry>
        </mxCell>
        <mxCell id="UdhTGRBezJr3sBxBmupz-127" value="&lt;u&gt;:儲存API&lt;/u&gt;" style="shape=umlLifeline;perimeter=lifelinePerimeter;whiteSpace=wrap;html=1;container=1;dropTarget=0;collapsible=0;recursiveResize=0;outlineConnect=0;portConstraint=eastwest;newEdgeStyle={&quot;curved&quot;:0,&quot;rounded&quot;:0};" parent="1" vertex="1">
          <mxGeometry x="210" y="110" width="100" height="460" as="geometry" />
        </mxCell>
        <mxCell id="UdhTGRBezJr3sBxBmupz-128" value="&lt;u style=&quot;font-size: 16px;&quot;&gt;:編輯建議資料UI&lt;/u&gt;" style="shape=umlLifeline;perimeter=lifelinePerimeter;whiteSpace=wrap;html=1;container=1;dropTarget=0;collapsible=0;recursiveResize=0;outlineConnect=0;portConstraint=eastwest;newEdgeStyle={&quot;curved&quot;:0,&quot;rounded&quot;:0};" parent="1" vertex="1">
          <mxGeometry x="360" y="110" width="100" height="460" as="geometry" />
        </mxCell>
        <mxCell id="UdhTGRBezJr3sBxBmupz-129" value="" style="html=1;points=[];perimeter=orthogonalPerimeter;" parent="1" vertex="1">
          <mxGeometry x="405" y="280" width="10" height="60" as="geometry" />
        </mxCell>
        <mxCell id="bqVQleZ_oQ4j5fNlhAJD-118" value="&lt;u&gt;:Cache&lt;/u&gt;" style="shape=umlLifeline;participant=umlControl;perimeter=lifelinePerimeter;whiteSpace=wrap;html=1;container=1;collapsible=0;recursiveResize=0;verticalAlign=top;spacingTop=36;outlineConnect=0;fontSize=14;size=60;align=center;" vertex="1" parent="1">
          <mxGeometry x="753" y="92.75" width="60" height="506.25" as="geometry" />
        </mxCell>
        <mxCell id="bqVQleZ_oQ4j5fNlhAJD-121" value="" style="html=1;points=[];perimeter=orthogonalPerimeter;" vertex="1" parent="bqVQleZ_oQ4j5fNlhAJD-118">
          <mxGeometry x="25" y="137.25" width="10" height="49" as="geometry" />
        </mxCell>
        <mxCell id="bqVQleZ_oQ4j5fNlhAJD-127" value="" style="html=1;points=[];perimeter=orthogonalPerimeter;" vertex="1" parent="bqVQleZ_oQ4j5fNlhAJD-118">
          <mxGeometry x="25" y="347.25" width="10" height="40" as="geometry" />
        </mxCell>
        <mxCell id="bqVQleZ_oQ4j5fNlhAJD-123" value="&lt;div&gt;&lt;u&gt;&lt;br&gt;&lt;/u&gt;&lt;/div&gt;&lt;u&gt;&lt;div&gt;&lt;u&gt;&lt;br&gt;&lt;/u&gt;&lt;/div&gt;:資料庫&lt;/u&gt;" style="shape=umlLifeline;perimeter=lifelinePerimeter;whiteSpace=wrap;html=1;container=1;dropTarget=0;collapsible=0;recursiveResize=0;outlineConnect=0;portConstraint=eastwest;newEdgeStyle={&quot;curved&quot;:0,&quot;rounded&quot;:0};participant=umlEntity;size=60;" vertex="1" parent="1">
          <mxGeometry x="900" y="100" width="60" height="490" as="geometry" />
        </mxCell>
        <mxCell id="bqVQleZ_oQ4j5fNlhAJD-124" value="" style="html=1;points=[];perimeter=orthogonalPerimeter;" vertex="1" parent="1">
          <mxGeometry x="925" y="400" width="10" height="40" as="geometry" />
        </mxCell>
        <mxCell id="bqVQleZ_oQ4j5fNlhAJD-126" value="7:更新快取資料" style="html=1;verticalAlign=bottom;endArrow=open;dashed=1;endSize=8;" edge="1" parent="1">
          <mxGeometry x="0.1667" y="-10" relative="1" as="geometry">
            <mxPoint x="925" y="440" as="sourcePoint" />
            <mxPoint x="789.25" y="440" as="targetPoint" />
            <Array as="points" />
            <mxPoint as="offset" />
          </mxGeometry>
        </mxCell>
      </root>
    </mxGraphModel>
  </diagram>
</mxfile>
